<mxfile host="app.diagrams.net" modified="2023-12-26T00:22:50.652Z" agent="Mozilla/5.0 (Windows NT 10.0; Win64; x64) AppleWebKit/537.36 (KHTML, like Gecko) Chrome/120.0.0.0 Safari/537.36" etag="bApu1OMrNplESo39SiER" version="22.1.11" type="github">
  <diagram name="Halaman-1" id="CHkbN-Mac3NWZmz73vWS">
    <mxGraphModel dx="972" dy="1021" grid="0" gridSize="10" guides="1" tooltips="1" connect="1" arrows="1" fold="1" page="0" pageScale="1" pageWidth="827" pageHeight="1169" math="0" shadow="0">
      <root>
        <mxCell id="0" />
        <mxCell id="1" parent="0" />
        <mxCell id="gkhtQe1C1U77Vv6sdkNh-4" value="Problem" style="swimlane;fontStyle=0;childLayout=stackLayout;horizontal=1;startSize=36;horizontalStack=0;resizeParent=1;resizeParentMax=0;resizeLast=0;collapsible=1;marginBottom=0;align=center;fontSize=14;strokeWidth=3;rounded=1;" vertex="1" parent="1">
          <mxGeometry x="-141" y="154" width="221" height="131" as="geometry" />
        </mxCell>
        <mxCell id="gkhtQe1C1U77Vv6sdkNh-5" value="Banyaknya penyakit terdiagnosis terlambat sehingga menjadi kronis" style="text;strokeColor=none;fillColor=none;spacingLeft=4;spacingRight=4;overflow=hidden;rotatable=0;points=[[0,0.5],[1,0.5]];portConstraint=eastwest;fontSize=16;whiteSpace=wrap;html=1;rounded=1;strokeWidth=3;align=center;" vertex="1" parent="gkhtQe1C1U77Vv6sdkNh-4">
          <mxGeometry y="36" width="221" height="95" as="geometry" />
        </mxCell>
        <mxCell id="gkhtQe1C1U77Vv6sdkNh-8" value="Opportunity" style="swimlane;fontStyle=0;childLayout=stackLayout;horizontal=1;startSize=38;horizontalStack=0;resizeParent=1;resizeParentMax=0;resizeLast=0;collapsible=1;marginBottom=0;align=center;fontSize=14;strokeWidth=3;rounded=1;" vertex="1" parent="1">
          <mxGeometry x="206" y="126.5" width="221" height="188" as="geometry" />
        </mxCell>
        <mxCell id="gkhtQe1C1U77Vv6sdkNh-9" value="Membuat sistem pakar diagnosis penyakit dengan menerapkan kecerdasan buatan dengan mengemplementasikan konsep NLP" style="text;strokeColor=none;fillColor=none;spacingLeft=4;spacingRight=4;overflow=hidden;rotatable=0;points=[[0,0.5],[1,0.5]];portConstraint=eastwest;fontSize=16;whiteSpace=wrap;html=1;rounded=1;strokeWidth=3;align=center;" vertex="1" parent="gkhtQe1C1U77Vv6sdkNh-8">
          <mxGeometry y="38" width="221" height="150" as="geometry" />
        </mxCell>
        <mxCell id="gkhtQe1C1U77Vv6sdkNh-10" value="Machine Learnign Approach" style="swimlane;fontStyle=0;childLayout=stackLayout;horizontal=1;startSize=35;horizontalStack=0;resizeParent=1;resizeParentMax=0;resizeLast=0;collapsible=1;marginBottom=0;align=center;fontSize=14;strokeWidth=3;rounded=1;" vertex="1" parent="1">
          <mxGeometry x="212" y="376" width="221" height="117" as="geometry" />
        </mxCell>
        <mxCell id="gkhtQe1C1U77Vv6sdkNh-11" value="Membangun model &lt;i&gt;machine learning &lt;/i&gt;menggunakan algoritma LSTM" style="text;strokeColor=none;fillColor=none;spacingLeft=4;spacingRight=4;overflow=hidden;rotatable=0;points=[[0,0.5],[1,0.5]];portConstraint=eastwest;fontSize=16;whiteSpace=wrap;html=1;rounded=1;strokeWidth=3;align=center;" vertex="1" parent="gkhtQe1C1U77Vv6sdkNh-10">
          <mxGeometry y="35" width="221" height="82" as="geometry" />
        </mxCell>
        <mxCell id="gkhtQe1C1U77Vv6sdkNh-12" value="Research Development" style="swimlane;fontStyle=0;childLayout=stackLayout;horizontal=1;startSize=34;horizontalStack=0;resizeParent=1;resizeParentMax=0;resizeLast=0;collapsible=1;marginBottom=0;align=center;fontSize=14;strokeWidth=3;rounded=1;" vertex="1" parent="1">
          <mxGeometry x="-141" y="376" width="221" height="116" as="geometry" />
        </mxCell>
        <mxCell id="gkhtQe1C1U77Vv6sdkNh-13" value="Membangun model &lt;i&gt;machine learning &lt;/i&gt;menggunakan algoritma LSTM" style="text;strokeColor=none;fillColor=none;spacingLeft=4;spacingRight=4;overflow=hidden;rotatable=0;points=[[0,0.5],[1,0.5]];portConstraint=eastwest;fontSize=16;whiteSpace=wrap;html=1;rounded=1;strokeWidth=3;align=center;" vertex="1" parent="gkhtQe1C1U77Vv6sdkNh-12">
          <mxGeometry y="34" width="221" height="82" as="geometry" />
        </mxCell>
        <mxCell id="gkhtQe1C1U77Vv6sdkNh-14" value="Model Implementation" style="swimlane;fontStyle=0;childLayout=stackLayout;horizontal=1;startSize=34;horizontalStack=0;resizeParent=1;resizeParentMax=0;resizeLast=0;collapsible=1;marginBottom=0;align=center;fontSize=14;strokeWidth=3;rounded=1;" vertex="1" parent="1">
          <mxGeometry x="-141" y="544" width="221" height="180" as="geometry" />
        </mxCell>
        <mxCell id="gkhtQe1C1U77Vv6sdkNh-15" value="Menggabungkan model yang menggunakan bahasa Python dan aplikasi web server yang menggunakan bahasa TypeScript." style="text;strokeColor=none;fillColor=none;spacingLeft=4;spacingRight=4;overflow=hidden;rotatable=0;points=[[0,0.5],[1,0.5]];portConstraint=eastwest;fontSize=16;whiteSpace=wrap;html=1;rounded=1;strokeWidth=3;align=center;" vertex="1" parent="gkhtQe1C1U77Vv6sdkNh-14">
          <mxGeometry y="34" width="221" height="146" as="geometry" />
        </mxCell>
        <mxCell id="gkhtQe1C1U77Vv6sdkNh-16" value="Result" style="swimlane;fontStyle=0;childLayout=stackLayout;horizontal=1;startSize=36;horizontalStack=0;resizeParent=1;resizeParentMax=0;resizeLast=0;collapsible=1;marginBottom=0;align=center;fontSize=14;strokeWidth=3;rounded=1;" vertex="1" parent="1">
          <mxGeometry x="200" y="570" width="221" height="148" as="geometry" />
        </mxCell>
        <mxCell id="gkhtQe1C1U77Vv6sdkNh-17" value="Aplikasi berbasis web sistem pakar diagnosis penyakit menular menggunkan algoritma LSTM." style="text;strokeColor=none;fillColor=none;spacingLeft=4;spacingRight=4;overflow=hidden;rotatable=0;points=[[0,0.5],[1,0.5]];portConstraint=eastwest;fontSize=16;whiteSpace=wrap;html=1;rounded=1;strokeWidth=3;align=center;" vertex="1" parent="gkhtQe1C1U77Vv6sdkNh-16">
          <mxGeometry y="36" width="221" height="112" as="geometry" />
        </mxCell>
        <mxCell id="gkhtQe1C1U77Vv6sdkNh-18" style="edgeStyle=none;curved=1;rounded=1;orthogonalLoop=1;jettySize=auto;html=1;entryX=0;entryY=0.5;entryDx=0;entryDy=0;fontSize=12;startSize=8;endSize=8;strokeWidth=2;spacing=3;" edge="1" parent="1" source="gkhtQe1C1U77Vv6sdkNh-5" target="gkhtQe1C1U77Vv6sdkNh-9">
          <mxGeometry relative="1" as="geometry" />
        </mxCell>
        <mxCell id="gkhtQe1C1U77Vv6sdkNh-19" style="edgeStyle=none;curved=1;rounded=1;orthogonalLoop=1;jettySize=auto;html=1;exitX=0.5;exitY=0;exitDx=0;exitDy=0;entryX=0.527;entryY=0.991;entryDx=0;entryDy=0;entryPerimeter=0;fontSize=12;startSize=8;endSize=8;startArrow=block;startFill=1;endArrow=none;endFill=0;strokeWidth=2;spacing=3;" edge="1" parent="1" source="gkhtQe1C1U77Vv6sdkNh-10" target="gkhtQe1C1U77Vv6sdkNh-9">
          <mxGeometry relative="1" as="geometry" />
        </mxCell>
        <mxCell id="gkhtQe1C1U77Vv6sdkNh-21" value="" style="edgeStyle=none;curved=1;rounded=1;orthogonalLoop=1;jettySize=auto;html=1;fontSize=12;startSize=8;endSize=8;strokeWidth=3;" edge="1" parent="1" source="gkhtQe1C1U77Vv6sdkNh-11" target="gkhtQe1C1U77Vv6sdkNh-13">
          <mxGeometry relative="1" as="geometry" />
        </mxCell>
        <mxCell id="gkhtQe1C1U77Vv6sdkNh-22" style="edgeStyle=none;curved=1;rounded=1;orthogonalLoop=1;jettySize=auto;html=1;exitX=0.5;exitY=0;exitDx=0;exitDy=0;entryX=0.5;entryY=1.014;entryDx=0;entryDy=0;entryPerimeter=0;fontSize=12;startSize=8;endSize=8;endArrow=none;endFill=0;startArrow=classic;startFill=1;strokeWidth=3;" edge="1" parent="1" source="gkhtQe1C1U77Vv6sdkNh-14" target="gkhtQe1C1U77Vv6sdkNh-13">
          <mxGeometry relative="1" as="geometry" />
        </mxCell>
        <mxCell id="gkhtQe1C1U77Vv6sdkNh-23" style="edgeStyle=none;curved=1;rounded=1;orthogonalLoop=1;jettySize=auto;html=1;exitX=1;exitY=0.5;exitDx=0;exitDy=0;entryX=0.011;entryY=0.397;entryDx=0;entryDy=0;entryPerimeter=0;fontSize=12;startSize=8;endSize=8;strokeWidth=3;" edge="1" parent="1" source="gkhtQe1C1U77Vv6sdkNh-15" target="gkhtQe1C1U77Vv6sdkNh-17">
          <mxGeometry relative="1" as="geometry" />
        </mxCell>
      </root>
    </mxGraphModel>
  </diagram>
</mxfile>
